<svg id="Group_55" data-name="Group 55" xmlns="http://www.w3.org/2000/svg" width="120" height="120" viewBox="0 0 120 120">
  <rect id="Retângulo_16" data-name="Retângulo 16" width="120" height="120" rx="60" fill="#a6a4a4"/>
  <path id="Caminho_85" data-name="Caminho 85" d="M44.25,55.5V94.875H48V89.008L64.933,71.191,82.3,89.461l2.886-2.1-2.141-2.249,8.2-6.128L100.5,85.9v5.69H96.75v3.281h7.5V55.5ZM100.5,81.586l-9.257-6.919-10.6,7.921L64.933,66.059,48,83.883v-25.1h52.5Z" transform="translate(-14.75 -15.051)" fill="#faff03"/>
  <path id="Caminho_86" data-name="Caminho 86" d="M81.75,75.188c4.142,0,7.5-2.938,7.5-6.562s-3.358-6.562-7.5-6.562-7.5,2.938-7.5,6.563S77.608,75.188,81.75,75.188Zm0-9.844A3.311,3.311,0,1,1,78,68.625,3.539,3.539,0,0,1,81.75,65.344Z" transform="translate(-16.5 -13.603)" fill="#faff03"/>
  <path id="Caminho_87" data-name="Caminho 87" d="M72.375,95.836V85.031h-3.75V99.118l-3.75,3.281-3.75-3.281V85.031h-3.75V95.836l-2.424-2.121L52.3,96.035l12.576,11,12.576-11L74.8,93.715Z" transform="translate(-12.567 -19.93)" fill="#faff03"/>
  <path id="Caminho_88" data-name="Caminho 88" d="M85.5,91.594H81.75v3.281H85.5Z" transform="translate(-16.769 -18.728)" fill="#faff03"/>
  <path id="Caminho_89" data-name="Caminho 89" d="M93,91.594H89.25v3.281H93Z" transform="translate(-18.308 -18.728)" fill="#faff03"/>
</svg>
