<svg width="50" height="50" viewBox="0 0 50 50" fill="none" xmlns="http://www.w3.org/2000/svg">
<path d="M45.5357 20.5357H30.3571C29.8641 20.5357 29.4643 20.1359 29.4643 19.6429V4.46429C29.4643 1.9989 27.4654 0 25 0C22.5346 0 20.5357 1.9989 20.5357 4.46429V19.6429C20.5357 20.1359 20.1359 20.5357 19.6429 20.5357H4.46429C1.9989 20.5357 0 22.5346 0 25C0 27.4654 1.9989 29.4643 4.46429 29.4643H19.6429C20.1359 29.4643 20.5357 29.8641 20.5357 30.3571V45.5357C20.5357 48.0011 22.5346 50 25 50C27.4654 50 29.4643 48.0011 29.4643 45.5357V30.3571C29.4643 29.8641 29.8641 29.4643 30.3571 29.4643H45.5357C48.0011 29.4643 50 27.4654 50 25C50 22.5346 48.0011 20.5357 45.5357 20.5357Z" fill="#515151"/>
</svg>
