<svg xmlns="http://www.w3.org/2000/svg" width="30" height="30" viewBox="0 0 30 30"><path d="M21.634,2.183a.569.569,0,0,1-.559-.578V.578a.56.56,0,1,1,1.119,0V1.6A.569.569,0,0,1,21.634,2.183Z" fill="#515151"/><path d="M4.74,12.339h0a2.645,2.645,0,0,0,2.314-1.37,2.825,2.825,0,0,0,0-2.754A2.645,2.645,0,0,0,4.74,6.846h0a2.646,2.646,0,0,0-2.314,1.37,2.824,2.824,0,0,0,0,2.754A2.645,2.645,0,0,0,4.74,12.339Z" fill="#515151"/><path d="M19.767,17.917A3.422,3.422,0,0,0,16.4,14.45h0l-2.782,0a3.291,3.291,0,0,0-1.792.538,2.1,2.1,0,0,0-1.8-1.046h0a2.056,2.056,0,0,0-1.237.413,3.326,3.326,0,0,0-2.636-1.319h0l-2.782,0A3.427,3.427,0,0,0,0,16.512v3.674a.569.569,0,0,0,.56.578h.967l.466,8.691A.567.567,0,0,0,2.553,30H6.995a.567.567,0,0,0,.558-.539l.259-4.012h.079l.434,4.037A.566.566,0,0,0,8.881,30h2.314a.567.567,0,0,0,.557-.518l.287-2.86.211,2.845a.567.567,0,0,0,.558.533H17.25a.567.567,0,0,0,.558-.545l.434-7.991h.968a.569.569,0,0,0,.559-.578ZM8.786,15.493a1.708,1.708,0,0,1,1.234-.528h0a1.733,1.733,0,0,1,1.519.9,1.851,1.851,0,0,1,0,1.807,1.734,1.734,0,0,1-1.519.9h0a1.744,1.744,0,0,1-1.613-1.11A1.843,1.843,0,0,1,8.786,15.493Zm2.866,8.8a.566.566,0,0,0-.556.518l-.405,4.038H9.382l-.434-4.038a.566.566,0,0,0-.556-.514H7.474V22.7a2.254,2.254,0,0,1,2.211-2.279l.674,0h0a2.253,2.253,0,0,1,2.21,2.276v1.6Z" fill="#515151"/><path d="M14.995,13.751h0a2.661,2.661,0,0,0,2.485-1.761,2.8,2.8,0,0,0-.705-3.025V8.3a1.654,1.654,0,1,0-3.307,0v.457a2.684,2.684,0,0,0-.359.31,2.812,2.812,0,0,0-.575,2.994A2.66,2.66,0,0,0,14.995,13.751Z" fill="#515151"/><path d="M29.192,19h-.2V16.692a1.63,1.63,0,0,0,.985-1.809,1.562,1.562,0,0,0-3.089,0,1.63,1.63,0,0,0,.985,1.809V19H19.36a.45.45,0,0,0,0,.9h9.832a.45.45,0,0,0,0-.9Z" fill="#515151"/><path d="M19.176,2.568h4.853a.126.126,0,0,1,.124.128V3.49a.126.126,0,0,1-.124.128H19.176a.126.126,0,0,1-.124-.128V2.7A.126.126,0,0,1,19.176,2.568Z" fill="#515151"/><path d="M25.4,5.031h-7.4a.632.632,0,0,0-.622.642v1.3a1.9,1.9,0,0,1,.151.746v.729a3.057,3.057,0,0,1,.112,4.34,2.989,2.989,0,0,1-.263.24v1.09a3.556,3.556,0,0,1,1.331.363V13.7a.569.569,0,0,1,.559-.578h4.493a.569.569,0,0,1,.559.578v4.786H25.4a.632.632,0,0,0,.622-.642V5.673A.632.632,0,0,0,25.4,5.031Zm-1.642,7.1H19.263a.578.578,0,0,1,0-1.155h4.493a.578.578,0,0,1,0,1.155Zm0-2.087H19.263a.578.578,0,0,1,0-1.155h4.493a.578.578,0,0,1,0,1.155Zm0-2.5H19.263a.578.578,0,0,1,0-1.155h4.493a.578.578,0,0,1,0,1.155Z" fill="#515151"/><path d="M20.784,18.487H23.2V14.279H19.823v1.377a3.833,3.833,0,0,1,.962,2.547Z" fill="#515151"/></svg>