<svg xmlns="http://www.w3.org/2000/svg" xmlns:xlink="http://www.w3.org/1999/xlink" width="222" height="166" viewBox="0 0 222 166">
  <defs>
    <clipPath id="clip-path">
      <rect id="Ret창ngulo_3" data-name="Ret창ngulo 3" width="125" height="125" fill="#fff"/>
    </clipPath>
    <clipPath id="clip-path-2">
      <rect id="Ret창ngulo_4" data-name="Ret창ngulo 4" width="125" height="129" transform="translate(198 67)" fill="#fff"/>
    </clipPath>
  </defs>
  <g id="Group_45" data-name="Group 45" transform="translate(-140 -177)">
    <g id="Grupo_6" data-name="Grupo 6" transform="translate(140 177)" clip-path="url(#clip-path)">
      <path id="Caminho_1" data-name="Caminho 1" d="M125,8.621V19.4a2.155,2.155,0,1,1-4.31,0V8.621Z" transform="translate(-60.345 -4.31)" fill="#95a5a5"/>
      <path id="Caminho_2" data-name="Caminho 2" d="M89.44,8.621c6.547,0,11.854-1.93,11.854-4.31S95.986,0,89.44,0,77.586,1.93,77.586,4.31,82.893,8.621,89.44,8.621Z" transform="translate(-38.793)" fill="#4a5248"/>
      <path id="Caminho_3" data-name="Caminho 3" d="M136.854,8.621c6.546,0,11.854-1.93,11.854-4.31S143.4,0,136.854,0,125,1.93,125,4.31,130.307,8.621,136.854,8.621Z" transform="translate(-62.5)" fill="#faff03"/>
      <path id="Caminho_4" data-name="Caminho 4" d="M99.138,30.172H90.517A25.828,25.828,0,0,0,64.655,56.034l15.086,4.31h30.172L125,56.034A25.862,25.862,0,0,0,99.138,30.172Z" transform="translate(-32.328 -15.086)" fill="#faff03"/>
      <path id="Caminho_5" data-name="Caminho 5" d="M109.914,211.207A15.086,15.086,0,0,1,125,226.293a4.322,4.322,0,0,1-4.311,4.311H30.172a4.323,4.323,0,0,1-4.31-4.311,15.086,15.086,0,0,1,15.086-15.086Z" transform="translate(-12.931 -105.604)" fill="rgba(250,255,3,0.28)"/>
      <path id="Caminho_6" data-name="Caminho 6" d="M111.223,211.207c7.614,0,13.773,15.086,13.773,15.086a4.157,4.157,0,0,1-3.935,4.311H38.415a4.149,4.149,0,0,1-3.935-4.311c0-8.215,6.058-15.086,13.774-15.086Z" transform="translate(-17.238 -105.604)" fill="#faff03"/>
      <path id="Caminho_7" data-name="Caminho 7" d="M61.247,112.668a16.813,16.813,0,0,1-9.073-10.151s-1.832-10.6,1.853-11.767a6.117,6.117,0,0,1,4.267.323c.151,4.289,4.849,10.539,5.841,14.806a16.614,16.614,0,0,0,.517,1.875C65.084,109.069,61.053,110.75,61.247,112.668Z" transform="translate(-25.859 -45.254)" fill="#f9c795"/>
      <path id="Caminho_8" data-name="Caminho 8" d="M185.5,102.517a16.813,16.813,0,0,1-9.074,10.151c.194-1.919-3.189-3.6-2.758-4.914a44.253,44.253,0,0,0,1.508-8.211c.28-2.975,4.117-6.035,4.2-8.47a6.117,6.117,0,0,1,4.268-.323C187.333,91.914,185.5,102.517,185.5,102.517Z" transform="translate(-86.816 -45.254)" fill="#f9c795"/>
      <path id="Caminho_9" data-name="Caminho 9" d="M94.828,30.172c-8.34,0-15.086,11.573-15.086,25.862H64.655A25.828,25.828,0,0,1,90.517,30.172Z" transform="translate(-32.328 -15.086)" fill="#515151"/>
      <path id="Caminho_10" data-name="Caminho 10" d="M155.173,56.034H140.086c0-14.289-6.745-25.862-15.086-25.862h4.311A25.862,25.862,0,0,1,155.173,56.034Z" transform="translate(-62.5 -15.086)" fill="#515151"/>
      <path id="Caminho_11" data-name="Caminho 11" d="M124.985,177.026c0,15.517.108,15.254-.258,17.09-.755,3.663-3.642,10.776-14.827,10.776s-14.073-7.113-14.828-10.776c-.366-1.834-.259-.808-.259-17.09,5.366,5.646,8.1,8.47,15.086,8.47S119.619,182.673,124.985,177.026Z" transform="translate(-47.399 -88.513)" fill="#f9c795"/>
      <path id="Caminho_12" data-name="Caminho 12" d="M125.992,95.244c-.914,8.222-1.86,7.65-2.414,13.125-.819,7.435-.862,18.4-7.715,25.258-8.584,8.584-10.757,12.931-19.4,12.931s-10.8-4.334-19.4-12.931c-6.853-6.854-6.9-17.824-7.715-25.258a31.29,31.29,0,0,0-1.422-6.789c4.679-7.239,10.627-11.056,11.358-11.056a16.169,16.169,0,0,0,.41,2.716c.453,1.789,3,1.117,3.836-.554,4.311-8.621,21.552-10.776,21.552-10.776C110.138,82.733,118.017,81.9,125.992,95.244Z" transform="translate(-33.965 -40.955)" fill="#fdd7ad"/>
      <path id="Caminho_13" data-name="Caminho 13" d="M103.444,81.9a36.538,36.538,0,0,0-21.53,14.16,2.155,2.155,0,0,1-3.858-.669,16.161,16.161,0,0,1-.41-2.715h-.065a26.173,26.173,0,0,0-11.293,8.9A107.379,107.379,0,0,1,64.651,81.9Z" transform="translate(-32.323 -40.948)" fill="#a56a43"/>
      <path id="Caminho_14" data-name="Caminho 14" d="M163.793,81.9c0,3.215-.2,8.636-.646,13.341A36.388,36.388,0,0,0,142.241,81.9Z" transform="translate(-71.12 -40.948)" fill="#a56a43"/>
    </g>
    <g id="Grupo_7" data-name="Grupo 7" transform="translate(39 147)" clip-path="url(#clip-path-2)">
      <path id="Caminho_15" data-name="Caminho 15" d="M308.129,269.586a15.319,15.319,0,0,1,15.129,15.5v4.429a4.377,4.377,0,0,1-4.322,4.429h-82.13a4.377,4.377,0,0,1-4.322-4.429v-4.429a15.319,15.319,0,0,1,15.129-15.5Z" transform="translate(-17.192 -98.503)" fill="rgba(74,82,72,0.87)"/>
      <path id="Caminho_16" data-name="Caminho 16" d="M309.541,269.586c7.558,0,13.688,6.94,13.688,15.5v4.429a4.2,4.2,0,0,1-3.912,4.429H245.01a4.2,4.2,0,0,1-3.912-4.429v-4.429c0-8.561,6.13-15.5,13.688-15.5Z" transform="translate(-21.485 -98.503)" fill="#515151"/>
      <path id="Caminho_17" data-name="Caminho 17" d="M323.074,250.664v9.722s0,11.073-12.968,11.073-12.968-11.073-12.968-11.073v-9.722Z" transform="translate(-49.428 -89.303)" fill="#f9c795"/>
      <path id="Caminho_18" data-name="Caminho 18" d="M323.248,146.961a10.8,10.8,0,0,1-21.591.554H254.065a10.987,10.987,0,0,1-8.846,10.344,10.752,10.752,0,0,1-11.851-6.459,11.242,11.242,0,0,1,3.427-13.3,10.509,10.509,0,0,1,4.323-1.993v-26.8c0-18.763,13.486-34.661,31.62-37.27h10.245c18.136,2.6,31.627,18.505,31.62,37.27v26.8A11.011,11.011,0,0,1,323.248,146.961Z" transform="translate(-17.183 -2.452)" fill="#cb8252"/>
      <path id="Caminho_19" data-name="Caminho 19" d="M314.09,142.1s1.989-4.225,6.549-1c4.387,3.1,3.5,20.894-5.339,20.914a16.6,16.6,0,0,1-.8,5.093,107.669,107.669,0,0,1-7.046,16.733c-11.37,21.131-30.587,21.158-41.972,0a107.671,107.671,0,0,1-7.046-16.733,16.6,16.6,0,0,1-.8-5.093c-8.84-.02-9.726-17.821-5.339-20.914,4.56-3.222,6.549,1,6.549,1s11.314-.015,18.457-6.028a2.121,2.121,0,0,1,2.194-.4,2.207,2.207,0,0,1,1.375,1.8,12.869,12.869,0,0,1,.069,1.6,2.259,2.259,0,0,0,.76,1.82,2.14,2.14,0,0,0,1.872.486,35.216,35.216,0,0,0,13.869-5.939,2.127,2.127,0,0,1,1.693-.542,2.156,2.156,0,0,1,1.518.94C302.328,138.452,306.091,142.082,314.09,142.1Z" transform="translate(-25.79 -33.006)" fill="#fdd7ad"/>
      <path id="Caminho_20" data-name="Caminho 20" d="M245.426,196.741v8.637a2.162,2.162,0,1,1-4.322,0v-6.644A10.5,10.5,0,0,1,245.426,196.741Z" transform="translate(-21.491 -63.084)" fill="#a56a43"/>
      <path id="Caminho_21" data-name="Caminho 21" d="M400.6,198.734v6.644a2.162,2.162,0,1,1-4.323,0v-8.637A10.509,10.509,0,0,1,400.6,198.734Z" transform="translate(-98.856 -63.084)" fill="#a56a43"/>
      <path id="Caminho_22" data-name="Caminho 22" d="M322.765,104.572c1.229,2.091-.832,4.668-2.823,3.5a41.093,41.093,0,0,0-41.164,0c-1.991,1.169-4.053-1.409-2.823-3.5,3.182-5.415,9.806-11.71,23.4-11.71S319.583,99.158,322.765,104.572Z" transform="translate(-38.682 -12.575)" fill="#faff03"/>
      <path id="Caminho_23" data-name="Caminho 23" d="M316.553,80.287a6.646,6.646,0,1,0-6.484-6.644A6.565,6.565,0,0,0,316.553,80.287Z" transform="translate(-55.875)" fill="#faff03"/>
    </g>
  </g>
</svg>
