<svg xmlns="http://www.w3.org/2000/svg" width="22" height="22" viewBox="0 0 22 22"><path d="M19.588,0H2.412A2.215,2.215,0,0,0,0,1.934V20.066A2.215,2.215,0,0,0,2.412,22H19.588A2.215,2.215,0,0,0,22,20.066V1.934A2.216,2.216,0,0,0,19.588,0ZM16.763,15.039H9.375a.737.737,0,0,1-.8-.645.738.738,0,0,1,.8-.645h7.388a.738.738,0,0,1,.8.645A.738.738,0,0,1,16.763,15.039Zm.8,2.621a.738.738,0,0,1-.8.645H9.375a.738.738,0,0,1-.8-.645.738.738,0,0,1,.8-.645h7.388A.738.738,0,0,1,17.567,17.66ZM8.2,6.585l-.035-.031a1.843,1.843,0,0,1-.708-1.274A2,2,0,0,1,9.63,3.536a2.535,2.535,0,0,1,1.365.388,2.544,2.544,0,0,1,1.517-.387,1.973,1.973,0,0,1,2.033,1.725,1.745,1.745,0,0,1-.721,1.3l-.019.017L11.585,8.472a.947.947,0,0,1-1.171,0Zm8.566,5.189H9.375a.738.738,0,0,1-.8-.645.737.737,0,0,1,.8-.645h7.388a.738.738,0,0,1,.8.645A.738.738,0,0,1,16.763,11.773ZM6.011,15.446A1.2,1.2,0,0,1,4.7,14.395a1.2,1.2,0,0,1,1.311-1.051,1.2,1.2,0,0,1,1.311,1.051A1.2,1.2,0,0,1,6.011,15.446ZM7.322,17.66a1.2,1.2,0,0,1-1.311,1.051A1.2,1.2,0,0,1,4.7,17.66a1.2,1.2,0,0,1,1.311-1.051A1.2,1.2,0,0,1,7.322,17.66ZM6.011,12.18A1.2,1.2,0,0,1,4.7,11.129a1.2,1.2,0,0,1,1.311-1.051,1.2,1.2,0,0,1,1.311,1.051A1.2,1.2,0,0,1,6.011,12.18Z" fill="#515151"/></svg>