<svg id="Capa_1" enable-background="new 0 0 512 512" height="512" viewBox="0 0 512 512" width="512" xmlns="http://www.w3.org/2000/svg" xmlns:xlink="http://www.w3.org/1999/xlink"><radialGradient id="SVGID_1_" cx="72.638" cy="63.551" gradientTransform="matrix(.707 -.707 .553 .553 -13.887 79.752)" gradientUnits="userSpaceOnUse" r="226.024"><stop offset=".0132" stop-color="#fffbe4"/><stop offset=".6064" stop-color="#f9efaf"/><stop offset=".7207" stop-color="#f9eeab"/><stop offset=".8394" stop-color="#f8ec9e"/><stop offset=".9597" stop-color="#f7e98a"/><stop offset="1" stop-color="#f6e781"/></radialGradient><radialGradient id="SVGID_2_" cx="-18.307" cy="255.964" gradientTransform="matrix(1 0 0 .66 0 86.958)" gradientUnits="userSpaceOnUse" r="405.566"><stop offset="0" stop-color="#f6e266"/><stop offset=".1349" stop-color="#f5dc60"/><stop offset=".3156" stop-color="#f0cb51"/><stop offset=".5216" stop-color="#e9af37"/><stop offset=".5854" stop-color="#e7a52e"/><stop offset="1" stop-color="#e7a52e"/></radialGradient><radialGradient id="SVGID_3_" cx="334.494" cy="267.854" gradientUnits="userSpaceOnUse" r="373.342"><stop offset="0" stop-color="#f6e266"/><stop offset=".377" stop-color="#f4dd45"/><stop offset=".4963" stop-color="#f2d340"/><stop offset=".6976" stop-color="#ecb934"/><stop offset=".8996" stop-color="#e49824"/></radialGradient><radialGradient id="SVGID_4_" cx="354.805" cy="467.53" gradientTransform="matrix(.931 0 0 .112 -75.044 409.074)" gradientUnits="userSpaceOnUse" r="234.348"><stop offset="0" stop-color="#ecb780"/><stop offset=".3347" stop-color="#faddb9"/><stop offset=".4962" stop-color="#ffecd0"/><stop offset=".888" stop-color="#fff"/></radialGradient><radialGradient id="SVGID_5_" cx="339.81" cy="380.225" gradientTransform="matrix(1 0 0 .57 0 163.627)" gradientUnits="userSpaceOnUse" r="203.895"><stop offset="0" stop-color="#d8aa8b"/><stop offset=".1426" stop-color="#cd9975"/><stop offset=".4378" stop-color="#b97a4d"/><stop offset=".5905" stop-color="#b16e3d"/><stop offset=".6258" stop-color="#ad6b3b"/><stop offset="1" stop-color="#804f2b"/></radialGradient><linearGradient id="lg1"><stop offset="0" stop-color="#c6865c"/><stop offset=".4963" stop-color="#c17d4f"/><stop offset=".7528" stop-color="#a86b3f"/><stop offset="1" stop-color="#8b572e"/></linearGradient><radialGradient id="SVGID_6_" cx="252.296" cy="209.844" gradientTransform="matrix(1 0 0 1.839 0 -176.047)" gradientUnits="userSpaceOnUse" r="60.658" xlink:href="#lg1"/><radialGradient id="SVGID_7_" cx="392.295" cy="209.844" gradientTransform="matrix(1 0 0 1.839 0 -176.047)" gradientUnits="userSpaceOnUse" r="60.658" xlink:href="#lg1"/><linearGradient id="lg2"><stop offset="0" stop-color="#ffece7"/><stop offset=".5614" stop-color="#fbe2da"/><stop offset=".5787" stop-color="#f9dfd7"/><stop offset="1" stop-color="#cba59d"/></linearGradient><radialGradient id="SVGID_8_" cx="313.734" cy="325.233" gradientTransform="matrix(1 0 0 .303 0 226.554)" gradientUnits="userSpaceOnUse" r="203.666" xlink:href="#lg2"/><radialGradient id="SVGID_9_" cx="313.637" cy="366.687" gradientTransform="matrix(1 0 0 .303 0 255.43)" gradientUnits="userSpaceOnUse" r="167.475" xlink:href="#lg2"/><g><path d="m293.01 23.082h-74.02c-120.945 0-218.99 98.045-218.99 218.99l89.659 24.005z" fill="url(#SVGID_1_)"/><path d="m74.02 242.072h-74.02c0 120.945 98.045 218.99 218.99 218.99h74.02z" fill="url(#SVGID_2_)"/><circle cx="293.01" cy="242.072" fill="url(#SVGID_3_)" r="218.99"/><path d="m258.279 488.918c125.572 0 227.368-12.472 227.368-27.856h-454.736c0 15.385 101.796 27.856 227.368 27.856z" fill="url(#SVGID_4_)"/><path d="m421.964 266.832c0 29.863-10.151 57.356-27.191 79.215-23.598 30.272-60.407 42.93-101.763 42.93s-78.166-12.658-101.763-42.93c-17.04-21.859-27.191-49.351-27.191-79.214h5.1l123.854 32.333 123.855-32.333h5.099z" fill="url(#SVGID_5_)"/><path d="m223.011 128.357c-12.576 0-22.771 10.195-22.771 22.771v78.282c0 1.381 1.119 2.5 2.5 2.5 1.381 0 2.5-1.119 2.5-2.5v-57.814c0-9.94 8.133-18.405 18.072-18.239 9.66.161 17.47 8.07 17.47 17.768v58.285c0 1.381 1.119 2.5 2.5 2.5 1.381 0 2.5-1.119 2.5-2.5v-78.282c-.001-12.576-10.195-22.771-22.771-22.771z" fill="url(#SVGID_6_)"/><path d="m363.009 128.357c-12.576 0-22.771 10.195-22.771 22.771v78.282c0 1.381 1.119 2.5 2.5 2.5 1.381 0 2.5-1.119 2.5-2.5v-57.814c0-9.94 8.133-18.405 18.072-18.239 9.66.161 17.47 8.07 17.47 17.768v58.285c0 1.381 1.119 2.5 2.5 2.5 1.381 0 2.5-1.119 2.5-2.5v-78.282c0-12.576-10.195-22.771-22.771-22.771z" fill="url(#SVGID_7_)"/><path d="m169.155 266.832s.001 2.08.002 5.046c.009.218.018.435.028.653 1.502 33.052 28.978 58.967 62.064 58.967h123.52c33.088 0 60.564-25.918 62.065-58.972.01-.219.019-.438.028-.658.001-2.961.002-5.037.002-5.037h-247.709z" fill="url(#SVGID_8_)"/><path d="m231.25 331.498c-15.17 0-29.151 5.459-40 14.545 23.598 30.272 60.403 49.743 101.76 49.743 41.356 0 78.161-19.471 101.759-49.743-10.848-9.086-24.829-14.545-40-14.545z" fill="url(#SVGID_9_)"/></g></svg>