<svg xmlns="http://www.w3.org/2000/svg" xmlns:xlink="http://www.w3.org/1999/xlink" width="109" height="109" viewBox="0 0 109 109">
  <defs>
    <clipPath id="clip-path">
      <rect id="Retângulo_9" data-name="Retângulo 9" width="109" height="109" fill="#fff"/>
    </clipPath>
  </defs>
  <g id="Group_45" data-name="Group 45" transform="translate(403 -306)">
    <g id="Grupo_13" data-name="Grupo 13" transform="translate(-403 306)" clip-path="url(#clip-path)">
      <path id="Caminho_52" data-name="Caminho 52" d="M298.106,269.586a13.123,13.123,0,0,1,13.125,13.121v3.749a3.749,3.749,0,0,1-3.75,3.749H236.233a3.749,3.749,0,0,1-3.75-3.749v-3.749a13.123,13.123,0,0,1,13.124-13.121Z" transform="translate(-217.483 -181.487)" fill="rgba(74,82,72,0.87)"/>
      <path id="Caminho_53" data-name="Caminho 53" d="M300.472,269.586c6.557,0,11.874,5.875,11.874,13.121v3.749a3.585,3.585,0,0,1-3.394,3.749H244.491a3.584,3.584,0,0,1-3.394-3.749v-3.749c0-7.247,5.318-13.121,11.874-13.121Z" transform="translate(-222.348 -181.487)" fill="#515151"/>
      <path id="Caminho_54" data-name="Caminho 54" d="M319.637,250.664v8.229s0,9.372-11.25,9.372-11.25-9.372-11.25-9.372v-8.229Z" transform="translate(-254.014 -170.794)" fill="#f9c795"/>
      <path id="Caminho_55" data-name="Caminho 55" d="M311.22,135.456a9.375,9.375,0,0,1-18.731.469H251.2a9.374,9.374,0,1,1-14.981-7.966,9.222,9.222,0,0,1,3.75-1.687V103.59A31.856,31.856,0,0,1,267.4,72.043h8.887a31.846,31.846,0,0,1,27.43,31.547v22.681A9.373,9.373,0,0,1,311.22,135.456Z" transform="translate(-217.473 -69.85)" fill="#cb8252"/>
      <path id="Caminho_56" data-name="Caminho 56" d="M305.562,140.993s1.725-3.576,5.681-.849c3.806,2.624,3.037,17.685-4.631,17.7a13.734,13.734,0,0,1-.694,4.311,89.94,89.94,0,0,1-6.112,14.163c-9.864,17.886-26.534,17.908-36.411,0a89.943,89.943,0,0,1-6.112-14.163,13.734,13.734,0,0,1-.694-4.311c-7.668-.017-8.437-15.084-4.631-17.7,3.956-2.728,5.681.849,5.681.849s9.815-.013,16.012-5.1a1.875,1.875,0,0,1,3.1,1.181,10.627,10.627,0,0,1,.06,1.357,1.89,1.89,0,0,0,2.284,1.951,30.95,30.95,0,0,0,12.032-5.027,1.875,1.875,0,0,1,2.786.337C295.359,137.9,298.623,140.976,305.562,140.993Z" transform="translate(-227.227 -105.361)" fill="#fdd7ad"/>
      <path id="Caminho_57" data-name="Caminho 57" d="M244.854,196.741v7.311a1.875,1.875,0,0,1-3.75,0v-5.623A9.218,9.218,0,0,1,244.854,196.741Z" transform="translate(-222.354 -140.32)" fill="#a56a43"/>
      <path id="Caminho_58" data-name="Caminho 58" d="M400.026,198.428v5.623a1.875,1.875,0,0,1-3.75,0v-7.311A9.222,9.222,0,0,1,400.026,198.428Z" transform="translate(-310.028 -140.32)" fill="#a56a43"/>
      <path id="Caminho_59" data-name="Caminho 59" d="M316.514,102.774c1.067,1.769-.722,3.951-2.449,2.962a36.419,36.419,0,0,0-35.71,0c-1.727.989-3.516-1.192-2.449-2.962,2.76-4.583,8.507-9.912,20.3-9.912S313.754,98.191,316.514,102.774Z" transform="translate(-241.836 -81.615)" fill="#faff03"/>
      <path id="Caminho_60" data-name="Caminho 60" d="M315.694,78.247a5.623,5.623,0,1,0-5.625-5.623A5.624,5.624,0,0,0,315.694,78.247Z" transform="translate(-261.32 -67)" fill="#faff03"/>
    </g>
  </g>
</svg>
