<svg xmlns="http://www.w3.org/2000/svg" width="20" height="24" viewBox="0 0 20 24"><path d="M23.1,2.122H19.55a1.039,1.039,0,0,1-.935-.431C18.278.682,16.718-.035,14.938,0c-1.791-.018-3.344.71-3.678,1.725a1.02,1.02,0,0,1-.935.4H6.9V5.716H23.1Z" transform="translate(-5)" fill="#515151"/><path d="M20,22.625V5.5a1.328,1.328,0,0,0-1.41-1.228q-.054,0-.107,0H15.517V5.8c0,.239-.172.568-.448.568H4.9c-.276,0-.414-.329-.414-.568V4.278H1.518A1.363,1.363,0,0,0,0,5.41Q0,5.456,0,5.5V22.625A1.448,1.448,0,0,0,1.517,24H18.482A1.448,1.448,0,0,0,20,22.626ZM7.207,18.681l-2.69,2.181a.512.512,0,0,1-.345.149.593.593,0,0,1-.379-.149L2.38,19.607a.407.407,0,0,1,.034-.627.576.576,0,0,1,.724,0l1.034.956,2.345-1.912a.569.569,0,0,1,.719.114A.4.4,0,0,1,7.207,18.681Zm0-4.781-2.69,2.181a.512.512,0,0,1-.345.149.593.593,0,0,1-.379-.149L2.38,14.826a.407.407,0,0,1,.034-.628.576.576,0,0,1,.724,0l1.034.956,2.345-1.912a.569.569,0,0,1,.719.114A.4.4,0,0,1,7.207,13.9Zm0-4.781L4.517,11.3a.511.511,0,0,1-.345.149.592.592,0,0,1-.379-.149L2.38,10.045a.407.407,0,0,1,.034-.628.576.576,0,0,1,.724,0l1.034.956L6.517,8.461a.569.569,0,0,1,.719.114A.4.4,0,0,1,7.207,9.119Zm10.034,11.3H9.31a.453.453,0,1,1,0-.9h7.931a.453.453,0,1,1,0,.9Zm0-4.781H9.31a.453.453,0,1,1,0-.9h7.931a.453.453,0,1,1,0,.9Zm0-4.781H9.31a.453.453,0,1,1,0-.9h7.931a.453.453,0,1,1,0,.9Z" transform="translate(0 0)" fill="#515151"/></svg>